<svg xmlns="http://www.w3.org/2000/svg" viewBox="0 0 420 420" role="img" aria-label="Floral watercolor edge cluster">
  <defs>
    <radialGradient id="petalCream" cx="35%" cy="30%" r="75%">
      <stop offset="0%" stop-color="#FFF9E7" />
      <stop offset="60%" stop-color="#F7E8BC" />
      <stop offset="100%" stop-color="#EFD8A0" />
    </radialGradient>
    <radialGradient id="petalBlueSmall" cx="35%" cy="30%" r="75%">
      <stop offset="0%" stop-color="#F0F8FF" />
      <stop offset="60%" stop-color="#C3DBF8" />
      <stop offset="100%" stop-color="#A9C6EA" />
    </radialGradient>
    <linearGradient id="stemSoft" x1="0%" y1="0%" x2="100%" y2="100%">
      <stop offset="0%" stop-color="#7D9D71" />
      <stop offset="100%" stop-color="#607F57" />
    </linearGradient>
  </defs>

  <g opacity="0.92">
    <path d="M360 402 C330 330, 300 254, 266 192" fill="none" stroke="url(#stemSoft)" stroke-width="5.2" stroke-linecap="round" />
    <path d="M360 402 C330 330, 300 254, 266 192" fill="none" stroke="#455A40" stroke-width="1.1" stroke-linecap="round" opacity="0.72" />

    <g transform="translate(252 176)" opacity="0.96">
      <g fill="url(#petalCream)" stroke="#8C7B4A" stroke-width="1.45">
        <ellipse rx="24" ry="52" transform="rotate(12) translate(0 -46)" />
        <ellipse rx="24" ry="52" transform="rotate(84) translate(0 -46)" />
        <ellipse rx="24" ry="52" transform="rotate(156) translate(0 -46)" />
        <ellipse rx="24" ry="52" transform="rotate(228) translate(0 -46)" />
        <ellipse rx="24" ry="52" transform="rotate(300) translate(0 -46)" />
      </g>
      <circle r="15" fill="#D0A56A" stroke="#6E5731" stroke-width="1.3" />
    </g>

    <g transform="translate(306 278)" opacity="0.92">
      <path d="M0 0 C-34 2, -58 23, -74 56 C-32 60, -9 34, 0 0 Z" fill="#728F67" stroke="#506949" stroke-width="1.2" />
      <path d="M-50 42 C-58 18, -67 4, -82 -8" fill="none" stroke="#506949" stroke-width="1" />
    </g>

    <g transform="translate(132 58)" opacity="0.94">
      <path d="M204 174 C176 126, 144 98, 95 82" fill="none" stroke="url(#stemSoft)" stroke-width="3.5" stroke-linecap="round" />
      <path d="M204 174 C176 126, 144 98, 95 82" fill="none" stroke="#455A40" stroke-width="0.9" stroke-linecap="round" opacity="0.66" />
      <g transform="translate(90 80)">
        <g fill="url(#petalBlueSmall)" stroke="#6D83A4" stroke-width="0.95">
          <ellipse rx="8" ry="14" transform="rotate(0) translate(0 -11)" />
          <ellipse rx="8" ry="14" transform="rotate(72) translate(0 -11)" />
          <ellipse rx="8" ry="14" transform="rotate(144) translate(0 -11)" />
          <ellipse rx="8" ry="14" transform="rotate(216) translate(0 -11)" />
          <ellipse rx="8" ry="14" transform="rotate(288) translate(0 -11)" />
        </g>
        <circle r="4.5" fill="#E8DAA5" stroke="#6D83A4" stroke-width="0.85" />
      </g>
      <g transform="translate(116 102)">
        <g fill="url(#petalBlueSmall)" stroke="#6D83A4" stroke-width="0.95">
          <ellipse rx="8" ry="14" transform="rotate(0) translate(0 -11)" />
          <ellipse rx="8" ry="14" transform="rotate(72) translate(0 -11)" />
          <ellipse rx="8" ry="14" transform="rotate(144) translate(0 -11)" />
          <ellipse rx="8" ry="14" transform="rotate(216) translate(0 -11)" />
          <ellipse rx="8" ry="14" transform="rotate(288) translate(0 -11)" />
        </g>
        <circle r="4.5" fill="#E8DAA5" stroke="#6D83A4" stroke-width="0.85" />
      </g>
    </g>
  </g>
</svg>
