<svg xmlns="http://www.w3.org/2000/svg" viewBox="0 0 420 420" role="img" aria-label="Floral watercolor cluster">
  <defs>
    <radialGradient id="petalYellow" cx="35%" cy="30%" r="75%">
      <stop offset="0%" stop-color="#FFF7D9" />
      <stop offset="60%" stop-color="#FBE8B2" />
      <stop offset="100%" stop-color="#F1D48A" />
    </radialGradient>
    <radialGradient id="petalBlue" cx="35%" cy="30%" r="75%">
      <stop offset="0%" stop-color="#EEF7FF" />
      <stop offset="60%" stop-color="#BFD8F6" />
      <stop offset="100%" stop-color="#A9C7EE" />
    </radialGradient>
    <linearGradient id="stemGreen" x1="0%" y1="0%" x2="100%" y2="100%">
      <stop offset="0%" stop-color="#7A9A6F" />
      <stop offset="100%" stop-color="#5B7C52" />
    </linearGradient>
  </defs>

  <g opacity="0.94">
    <path d="M250 408 C248 338, 266 270, 252 214" fill="none" stroke="url(#stemGreen)" stroke-width="5.5" stroke-linecap="round" />
    <path d="M250 408 C248 338, 266 270, 252 214" fill="none" stroke="#44583E" stroke-width="1.2" stroke-linecap="round" opacity="0.72" />

    <g transform="translate(250 200)">
      <g fill="url(#petalYellow)" stroke="#8B7A47" stroke-width="1.5">
        <ellipse rx="26" ry="56" transform="rotate(0) translate(0 -52)" />
        <ellipse rx="26" ry="56" transform="rotate(72) translate(0 -52)" />
        <ellipse rx="26" ry="56" transform="rotate(144) translate(0 -52)" />
        <ellipse rx="26" ry="56" transform="rotate(216) translate(0 -52)" />
        <ellipse rx="26" ry="56" transform="rotate(288) translate(0 -52)" />
      </g>
      <circle r="18" fill="#E3B94C" stroke="#7B5D2C" stroke-width="1.5" />
      <circle r="10" fill="#F4D46F" stroke="#7B5D2C" stroke-width="1.2" />
    </g>

    <g transform="translate(188 300)" opacity="0.94">
      <path d="M0 32 C-42 12, -68 18, -87 44 C-50 54, -16 48, 0 32 Z" fill="#6F9564" stroke="#4E6846" stroke-width="1.2" />
      <path d="M8 18 C30 4, 55 4, 77 21 C48 34, 27 30, 8 18 Z" fill="#739B69" stroke="#4E6846" stroke-width="1.2" />
    </g>

    <g transform="translate(116 172)">
      <path d="M136 40 C92 8, 44 18, 16 62" fill="none" stroke="url(#stemGreen)" stroke-width="4" stroke-linecap="round" />
      <path d="M136 40 C92 8, 44 18, 16 62" fill="none" stroke="#44583E" stroke-width="1" stroke-linecap="round" opacity="0.68" />
      <g transform="translate(12 56)">
        <g fill="url(#petalBlue)" stroke="#6D83A4" stroke-width="1.1">
          <ellipse rx="9" ry="16" transform="rotate(0) translate(0 -12)" />
          <ellipse rx="9" ry="16" transform="rotate(72) translate(0 -12)" />
          <ellipse rx="9" ry="16" transform="rotate(144) translate(0 -12)" />
          <ellipse rx="9" ry="16" transform="rotate(216) translate(0 -12)" />
          <ellipse rx="9" ry="16" transform="rotate(288) translate(0 -12)" />
        </g>
        <circle r="5" fill="#E7D89A" stroke="#6D83A4" stroke-width="0.9" />
      </g>
      <g transform="translate(44 34)">
        <g fill="url(#petalBlue)" stroke="#6D83A4" stroke-width="1.1">
          <ellipse rx="9" ry="16" transform="rotate(0) translate(0 -12)" />
          <ellipse rx="9" ry="16" transform="rotate(72) translate(0 -12)" />
          <ellipse rx="9" ry="16" transform="rotate(144) translate(0 -12)" />
          <ellipse rx="9" ry="16" transform="rotate(216) translate(0 -12)" />
          <ellipse rx="9" ry="16" transform="rotate(288) translate(0 -12)" />
        </g>
        <circle r="5" fill="#E7D89A" stroke="#6D83A4" stroke-width="0.9" />
      </g>
    </g>
  </g>
</svg>
