<svg xmlns="http://www.w3.org/2000/svg" viewBox="0 0 260 260" role="img" aria-label="Bloom Breath flower logo">
  <defs>
    <radialGradient id="petal-grad" cx="38%" cy="30%" r="72%">
      <stop offset="0%" stop-color="#FFF3B1" />
      <stop offset="55%" stop-color="#F6D94A" />
      <stop offset="100%" stop-color="#E5BE2A" />
    </radialGradient>
    <linearGradient id="leaf-grad" x1="0%" y1="0%" x2="100%" y2="100%">
      <stop offset="0%" stop-color="#5D8956" />
      <stop offset="100%" stop-color="#4C7445" />
    </linearGradient>
  </defs>

  <ellipse cx="130" cy="230" rx="16" ry="8" fill="#8B6B4D" opacity="0.35" />

  <path d="M130 228 C 122 187, 138 144, 130 104" fill="none" stroke="#6F9A63" stroke-width="7" stroke-linecap="round" />
  <path d="M130 228 C 122 187, 138 144, 130 104" fill="none" stroke="#3E5138" stroke-width="1.6" stroke-linecap="round" />

  <path d="M126 171 C 101 154, 76 162, 65 187 C 92 193, 114 187, 126 171 Z" fill="url(#leaf-grad)" stroke="#3E5138" stroke-width="1.6" />
  <path d="M132 154 C 153 136, 176 138, 189 161 C 166 170, 145 166, 132 154 Z" fill="url(#leaf-grad)" stroke="#3E5138" stroke-width="1.6" />
  <path d="M92 186 C 102 177, 112 174, 123 171" fill="none" stroke="#3E5138" stroke-width="1" />
  <path d="M150 164 C 161 158, 172 158, 183 160" fill="none" stroke="#3E5138" stroke-width="1" />

  <g transform="rotate(0 130 95)">
    <path d="M 130 95 C 117 81, 114 50, 130 27 C 146 50, 143 81, 130 95" fill="url(#petal-grad)" stroke="#3E5138" stroke-width="1.6" />
    <path d="M 126 67 C 122 54, 122 42, 129 35" fill="none" stroke="#FFF3B1" stroke-opacity="0.85" stroke-width="2" stroke-linecap="round" />
  </g>
  <g transform="rotate(60 130 95)">
    <path d="M 130 95 C 117 81, 114 50, 130 27 C 146 50, 143 81, 130 95" fill="url(#petal-grad)" stroke="#3E5138" stroke-width="1.6" />
    <path d="M 126 67 C 122 54, 122 42, 129 35" fill="none" stroke="#FFF3B1" stroke-opacity="0.85" stroke-width="2" stroke-linecap="round" />
  </g>
  <g transform="rotate(120 130 95)">
    <path d="M 130 95 C 117 81, 114 50, 130 27 C 146 50, 143 81, 130 95" fill="url(#petal-grad)" stroke="#3E5138" stroke-width="1.6" />
    <path d="M 126 67 C 122 54, 122 42, 129 35" fill="none" stroke="#FFF3B1" stroke-opacity="0.85" stroke-width="2" stroke-linecap="round" />
  </g>
  <g transform="rotate(180 130 95)">
    <path d="M 130 95 C 117 81, 114 50, 130 27 C 146 50, 143 81, 130 95" fill="url(#petal-grad)" stroke="#3E5138" stroke-width="1.6" />
    <path d="M 126 67 C 122 54, 122 42, 129 35" fill="none" stroke="#FFF3B1" stroke-opacity="0.85" stroke-width="2" stroke-linecap="round" />
  </g>
  <g transform="rotate(240 130 95)">
    <path d="M 130 95 C 117 81, 114 50, 130 27 C 146 50, 143 81, 130 95" fill="url(#petal-grad)" stroke="#3E5138" stroke-width="1.6" />
    <path d="M 126 67 C 122 54, 122 42, 129 35" fill="none" stroke="#FFF3B1" stroke-opacity="0.85" stroke-width="2" stroke-linecap="round" />
  </g>
  <g transform="rotate(300 130 95)">
    <path d="M 130 95 C 117 81, 114 50, 130 27 C 146 50, 143 81, 130 95" fill="url(#petal-grad)" stroke="#3E5138" stroke-width="1.6" />
    <path d="M 126 67 C 122 54, 122 42, 129 35" fill="none" stroke="#FFF3B1" stroke-opacity="0.85" stroke-width="2" stroke-linecap="round" />
  </g>

  <circle cx="130" cy="95" r="15" fill="#F3B21A" stroke="#3E5138" stroke-width="1.6" />
  <circle cx="130" cy="95" r="9" fill="#FFD84A" stroke="#3E5138" stroke-width="1.4" />
</svg>
